<svg id="Layer_1" data-name="Layer 1" xmlns="http://www.w3.org/2000/svg" width="183.98" height="85" viewBox="0 0 183.98 85"><defs><style>.cls-1{fill:#e51d33;}.cls-2,.cls-3{fill:#fff;}.cls-3{fill-rule:evenodd;}</style></defs><title>logo-pb-white</title><rect class="cls-1" x="36.85" width="110" height="85"/><path class="cls-2" d="M85.37,69.5V68H83.55l-3.84-4.77a28.28,28.28,0,0,0,3.19-8.37h2.47V53.46H78V54.9l2.51.39a19.42,19.42,0,0,1-1.9,6.49c-2.77-3.53-4.73-6.14-6.11-8.11,2.61-1.37,5.5-3,5.5-6.37,0-2.62-2.18-4.81-5.86-4.81-4.37,0-7.12,2.93-7.12,6.06,0,1.92.49,3.44,2.75,6.77-4.53,2.66-5.66,5.87-5.66,8.06,0,3.83,2.83,6.5,7.4,6.5a10.45,10.45,0,0,0,7.12-2.78c.57.78,1.21,1.57,1.86,2.39ZM71.91,52.87c-2.29-3.37-2.67-4.18-2.67-5.33a3,3,0,0,1,3-3.13,2.9,2.9,0,0,1,2.91,3.1c0,2.82-1.19,3.8-3.24,5.36ZM71.59,67.5c-2.67,0-4.69-1.53-4.69-5a8.63,8.63,0,0,1,2-5.52c1.54,2.15,3.72,5,6.67,8.84a6,6,0,0,1-4,1.68Z"/><path class="cls-2" d="M30.82,51.11a10.06,10.06,0,0,1,2.87.38,5,5,0,0,1,2.18,1.31,6.09,6.09,0,0,1,1.38,2.46,12.78,12.78,0,0,1,.49,3.83v1.56H28.31V61c0,.85,0,1.67.1,2.45A5.56,5.56,0,0,0,29,65.49a3.43,3.43,0,0,0,1.43,1.44,5.55,5.55,0,0,0,2.67.53,14.36,14.36,0,0,0,2.2-.17c.71-.12,1.4-.25,2-.38v1.45a7.62,7.62,0,0,1-1.11.55,11.39,11.39,0,0,1-1.47.48,15.48,15.48,0,0,1-1.67.33,12.22,12.22,0,0,1-1.74.13,11.3,11.3,0,0,1-4-.61,6.4,6.4,0,0,1-2.69-1.81,7.4,7.4,0,0,1-1.53-3,15.47,15.47,0,0,1-.48-4q0-4.7,2-7t6.09-2.31ZM30.61,53a1.6,1.6,0,0,0-1.13.4,2.72,2.72,0,0,0-.7,1.13,6.94,6.94,0,0,0-.35,1.78q-.1,1-.1,2.33H32.5c0-.85,0-1.63,0-2.33a9.54,9.54,0,0,0-.23-1.78,2.52,2.52,0,0,0-.57-1.13,1.38,1.38,0,0,0-1-.4Z"/><path class="cls-2" d="M9.31,59.44v8.14l4.26.52v1.4H.25V68.1l3-.52V45.75L0,45.25V43.87H11.28a20.34,20.34,0,0,1,5.3.58,9,9,0,0,1,3.32,1.6,5.46,5.46,0,0,1,1.71,2.4,8.8,8.8,0,0,1,.49,3,11,11,0,0,1-.41,3A6,6,0,0,1,20.23,57a7.53,7.53,0,0,1-2.88,1.77,13.38,13.38,0,0,1-4.6.67Zm6.65-8c0-5.28-2.25-6.08-6.65-6.08v12.8c4,0,6.65-1.47,6.65-6.72Z"/><path class="cls-2" d="M136.37,51.15a14.1,14.1,0,0,1,2.71.25,6.14,6.14,0,0,1,2.15.83,4.06,4.06,0,0,1,1.4,1.54,5,5,0,0,1,.5,2.35V67.78l1.79.46V69.5H138.3l-.42-1.37c-.24.17-.53.35-.85.55a7.38,7.38,0,0,1-1.12.57,8,8,0,0,1-1.42.45,7.63,7.63,0,0,1-1.74.18,7.52,7.52,0,0,1-2.63-.4,4.34,4.34,0,0,1-1.71-1.12,4.18,4.18,0,0,1-.94-1.7,7.7,7.7,0,0,1-.29-2.13,5.82,5.82,0,0,1,.65-3,4.48,4.48,0,0,1,1.75-1.71,7.3,7.3,0,0,1,2.56-.8,28.85,28.85,0,0,1,3.11-.23l2.33-.06V56.16a3.83,3.83,0,0,0-.65-2.41,2.4,2.4,0,0,0-2-.83,5.85,5.85,0,0,0-1.93.3,13.23,13.23,0,0,0-1.68.7l-.73,2.25h-1.26V51.82l1.68-.25,1.62-.21c.55-.07,1.12-.11,1.73-.15s1.27-.06,2-.06ZM137.6,60c-3,.11-4.89.86-4.89,4.41,0,1.35.36,3.41,2.06,3.41a5.57,5.57,0,0,0,2.83-.91V60Z"/><path class="cls-2" d="M164.67,53.11l1.3-.67c.47-.24,1-.46,1.49-.67a12.21,12.21,0,0,1,1.62-.5,7.14,7.14,0,0,1,1.7-.2,6.72,6.72,0,0,1,2,.29,4,4,0,0,1,1.58.91,4.25,4.25,0,0,1,1,1.64,7.32,7.32,0,0,1,.37,2.45V67.78l1.79.46V69.5h-8.91V68.23l1.6-.46V57.09a4.1,4.1,0,0,0-.68-2.5,2.28,2.28,0,0,0-1.94-.9,7,7,0,0,0-2.9.65V67.78l1.64.46V69.5h-8.92V68.23l1.76-.46V53.26l-1.76-.46V51.54h7l.27,1.57Z"/><polygon class="cls-2" points="153.84 67.78 155.81 68.23 155.81 69.5 146.37 69.5 146.37 68.23 148.32 67.78 148.32 53.26 146.49 52.8 146.49 51.54 153.84 51.54 153.84 67.78 153.84 67.78"/><path class="cls-2" d="M84,69.5,83.55,68l5.19-.49V45.75l-3.31-.5V43.87h9.33V69.56H94.6c-1.5,0-2.89-.06-4.16-.06ZM96.62,43.87h1.25a23.7,23.7,0,0,1,4.76.4,9,9,0,0,1,3.07,1.15,4.3,4.3,0,0,1,1.64,1.81,5.81,5.81,0,0,1,.49,2.43,5.88,5.88,0,0,1-1.58,4.12,6.39,6.39,0,0,1-1.68,1.28,7.89,7.89,0,0,1-2,.73,12.94,12.94,0,0,1,3.25.71,7,7,0,0,1,2.25,1.32,4.94,4.94,0,0,1,1.31,1.86,6.31,6.31,0,0,1,.42,2.34,7.71,7.71,0,0,1-.59,3.06,5.91,5.91,0,0,1-1.88,2.39A9.39,9.39,0,0,1,104,69a18.13,18.13,0,0,1-4.86.57l-2.52,0v-1.4c3.87-.46,6.87-2.24,6.87-6.16,0-4.52-3-5.17-6.87-5.74V54.9c3.7,0,4.95-1.12,4.95-5a4.14,4.14,0,0,0-1.32-3.44,6,6,0,0,0-3.63-1.2V43.87Z"/><path class="cls-2" d="M118.74,55.25c.33-.37.74-.8,1.23-1.3a17,17,0,0,1,1.61-1.42,10.19,10.19,0,0,1,1.85-1.13,4.69,4.69,0,0,1,2-.46h1v6.53H125.4l-1.13-2.39a7.14,7.14,0,0,0-1.38.15,11.79,11.79,0,0,0-1.47.41c-.48.18-1,.37-1.41.57a12,12,0,0,0-1.17.63V67.78l2.88.46V69.5H111V68.23l2.33-.46V53.26L111,52.8V51.54h7.54l.21,3.71Z"/><path class="cls-2" d="M83.39,69.5,83.55,68l5.19-.19V45.75l-3.31-.5V43.87H97.87a23.7,23.7,0,0,1,4.76.4,9,9,0,0,1,3.07,1.15,4.3,4.3,0,0,1,1.64,1.81,5.81,5.81,0,0,1,.49,2.43,5.88,5.88,0,0,1-1.58,4.12,6.39,6.39,0,0,1-1.68,1.28,7.89,7.89,0,0,1-2,.73,12.94,12.94,0,0,1,3.25.71,7,7,0,0,1,2.25,1.32,4.94,4.94,0,0,1,1.31,1.86,6.31,6.31,0,0,1,.42,2.34,7.71,7.71,0,0,1-.59,3.06,5.91,5.91,0,0,1-1.88,2.39A9.39,9.39,0,0,1,104,69a18.13,18.13,0,0,1-4.86.57q-2.29,0-4.55-.06c-1.5,0-2.89-.06-4.16-.06Zm18.18-19.76c0-4.09-3.17-4.47-6.81-4.47V54.9h2.81c2.92,0,4-2,4-5.16ZM103.49,62c0-5.3-4.44-5.72-8.73-5.72V68.16c4.54.19,8.73-1.44,8.73-6.13Z"/><path class="cls-2" d="M47,53.11l1.3-.67c.47-.24,1-.46,1.49-.67a12.21,12.21,0,0,1,1.62-.5,7.14,7.14,0,0,1,1.7-.2,6.72,6.72,0,0,1,2,.29,4,4,0,0,1,1.58.91,4.25,4.25,0,0,1,1,1.64,7.32,7.32,0,0,1,.37,2.45V67.78l1.79.46V69.5H51V68.23l1.6-.46V57.09a4.1,4.1,0,0,0-.68-2.5,2.28,2.28,0,0,0-1.94-.9,7,7,0,0,0-2.9.65V67.78l1.64.46V69.5H39.81V68.23l1.76-.46V53.26l-1.76-.46V51.54h7L47,53.11Z"/><polygon class="cls-3" points="153.37 43.87 147.86 43.87 147.86 46.7 153.37 46.7 153.37 43.87 153.37 43.87"/><path class="cls-2" d="M176.86,47.68a3.6,3.6,0,0,1,1-2.62,3.52,3.52,0,0,1,5,0,3.82,3.82,0,0,1,0,5.24,3.51,3.51,0,0,1-5,0,3.63,3.63,0,0,1-1-2.63Zm.61,0a3,3,0,0,0,.86,2.19,2.89,2.89,0,0,0,4.17,0,3.2,3.2,0,0,0,0-4.37,2.91,2.91,0,0,0-4.18,0,3,3,0,0,0-.86,2.18Zm2.23.37v1.66h-.76V45.53h1.41a1.89,1.89,0,0,1,1.19.34,1.14,1.14,0,0,1,.44,1,.87.87,0,0,1-.14.48,1.12,1.12,0,0,1-.4.35.9.9,0,0,1,.4.43,1.57,1.57,0,0,1,.12.65V49a3.32,3.32,0,0,0,0,.36.84.84,0,0,0,.07.26v.08h-.78a.94.94,0,0,1-.05-.3c0-.13,0-.27,0-.41v-.27a.71.71,0,0,0-.17-.52.75.75,0,0,0-.55-.17Zm0-.66h.64a1.26,1.26,0,0,0,.63-.15.46.46,0,0,0,.26-.42.58.58,0,0,0-.2-.5,1.22,1.22,0,0,0-.68-.14h-.65v1.21Z"/></svg>